<?xml version="1.0" ?><svg viewBox="0 0 24 24" xmlns="http://www.w3.org/2000/svg"><defs><style>.cls-1{fill:#f1734d;}.cls-2{fill:#f7bf75;}.cls-3{fill:#ffeabb;}.cls-4{fill:#f94060;}.cls-5{fill:#d62657;}</style></defs><g id="Bank"><rect class="cls-1" height="9.52" width="11.63" x="6.01" y="9.91"/><rect class="cls-2" height="2.56" width="18.75" x="2.49" y="19.44"/><rect class="cls-3" height="9.52" width="3.63" x="3.71" y="9.91"/><rect class="cls-3" height="9.52" width="3.63" x="16.39" y="9.91"/><rect class="cls-4" height="2.31" width="18.27" x="2.73" y="7.61"/><polygon class="cls-2" points="11.86 2 20.01 7.61 3.72 7.61 11.86 2"/><rect class="cls-2" height="9.52" width="1.38" x="5.95" y="9.91"/><rect class="cls-2" height="9.52" width="1.38" x="18.63" y="9.91"/><rect class="cls-1" height="2.56" width="2.62" x="18.62" y="19.44"/><polygon class="cls-1" points="11.86 2 10.55 2.9 17.39 7.61 20.01 7.61 11.86 2"/><rect class="cls-5" height="2.31" width="4.3" x="16.7" y="7.61"/><path d="M2.49,18.94a.5.5,0,0,0-.5.5V22a.5.5,0,0,0,.5.5H21.24a.5.5,0,0,0,.5-.5V19.44a.5.5,0,0,0-.5-.5h-.73V10.41H21a.5.5,0,0,0,.5-.5V7.61a.5.5,0,0,0-.5-.5h-.84l-8-5.52a.5.5,0,0,0-.57,0l-8,5.52H2.73a.5.5,0,0,0-.5.5v2.3a.5.5,0,0,0,.5.5h.48v8.53ZM11.86,2.61l6.54,4.5H5.32ZM3.23,8.11H20.5v1.3H3.23Zm13.66,8.45V15.18h2.62v1.38Zm2.62,1v1.38H16.89V17.56Zm-2.62-3.38V12.8h2.62v1.38Zm0-2.38V10.41h2.62V11.8Zm-1-1.39v8.53H14.43V10.41Zm-5.6,4.86V10.41h3.14v4.86Zm3.14,1v2.67H10.29V16.27Zm-5.6-5.86H9.29v8.53H7.83ZM4.21,16.56V15.18H6.83v1.38Zm2.62,1v1.38H4.21V17.56ZM4.21,14.18V12.8H6.83v1.38Zm0-2.38V10.41H6.83V11.8Zm16.53,8.14V21.5H3V19.94Z"/><path d="M12.54,5.25H11.18a.5.5,0,0,0-.5.5.5.5,0,0,0,.5.5h1.36a.5.5,0,0,0,.5-.5A.5.5,0,0,0,12.54,5.25Z"/></g></svg>