<?xml version="1.0" encoding="iso-8859-1"?>
<!-- Generator: Adobe Illustrator 19.0.0, SVG Export Plug-In . SVG Version: 6.00 Build 0)  -->
<svg version="1.1" id="Layer_1" xmlns="http://www.w3.org/2000/svg" xmlns:xlink="http://www.w3.org/1999/xlink" x="0px" y="0px"
	 viewBox="0 0 512.001 512.001" style="enable-background:new 0 0 512.001 512.001;" xml:space="preserve">
<circle style="fill:#FFD652;" cx="204.256" cy="117.107" r="91.506"/>
<path style="fill:#FB9D46;" d="M241.294,171.575c-50.538,0-91.506-40.969-91.506-91.506c0-15.741,3.978-30.553,10.979-43.489
	c-28.594,15.475-48.017,45.732-48.017,80.528c0,50.538,40.969,91.506,91.506,91.506c34.795,0,65.052-19.423,80.528-48.017
	C271.848,167.598,257.035,171.575,241.294,171.575z"/>
<circle style="fill:#458FDE;" cx="412.324" cy="311.014" r="91.506"/>
<path style="fill:#4F5AA8;" d="M450.996,363.848c-50.538,0-91.506-40.969-91.506-91.506c0-15.309,3.779-29.729,10.425-42.409
	c-29.179,15.294-49.098,45.852-49.098,81.081c0,50.538,40.969,91.506,91.506,91.506c35.229,0,65.788-19.919,81.081-49.098
	C480.725,360.069,466.305,363.848,450.996,363.848z"/>
<circle style="fill:#AFF078;" cx="143.252" cy="393.805" r="91.506"/>
<path style="fill:#5AC779;" d="M181.379,447.184c-50.538,0-91.506-40.969-91.506-91.506c0-15.454,3.847-30.003,10.61-42.768
	c-28.985,15.356-48.738,45.812-48.738,80.896c0,50.538,40.969,91.506,91.506,91.506c35.084,0,65.541-19.754,80.896-48.738
	C211.381,443.338,196.833,447.184,181.379,447.184z"/>
<path d="M185.281,215.443c4.436,0.863,8.716-2.045,9.569-6.475c0.854-4.43-2.045-8.715-6.475-9.569
	c-39.086-7.537-67.455-41.951-67.455-81.826c0-45.953,37.384-83.336,83.336-83.336s83.336,37.384,83.336,83.336
	c0,41.203-30.705,76.666-71.421,82.491c-4.466,0.639-7.569,4.779-6.931,9.245c0.583,4.074,4.077,7.013,8.078,7.013
	c0.386,0,0.776-0.027,1.168-0.083c23.519-3.365,45.126-15.117,60.84-33.093c15.868-18.152,24.607-41.44,24.607-65.575
	c0-54.962-44.715-99.677-99.677-99.677s-99.677,44.715-99.677,99.677C104.579,165.264,138.519,206.426,185.281,215.443z"/>
<path d="M204.256,183.478c4.513,0,8.17-3.657,8.17-8.17v-9.26h7.081c10.511,0,19.064-8.553,19.064-19.064v-17.43
	c0-10.511-8.553-19.064-19.064-19.064h-7.081V87.614h22.332c4.513,0,8.17-3.657,8.17-8.17s-3.657-8.17-8.17-8.17h-22.332v-9.26
	c0-4.513-3.657-8.17-8.17-8.17s-8.17,3.657-8.17,8.17v9.26h-7.081c-10.511,0-19.064,8.553-19.064,19.064v17.43
	c0,10.511,8.553,19.064,19.064,19.064h7.081v22.877h-22.332c-4.513,0-8.17,3.657-8.17,8.17s3.657,8.17,8.17,8.17h22.332v9.26
	C196.086,179.821,199.743,183.478,204.256,183.478z M189.005,110.49c-1.502,0-2.723-1.221-2.723-2.723v-17.43
	c0-1.502,1.221-2.723,2.723-2.723h7.081v22.877H189.005z M212.426,126.831h7.081c1.502,0,2.723,1.221,2.723,2.723v17.43
	c0,1.502-1.221,2.723-2.723,2.723h-7.081V126.831z"/>
<path d="M412.324,211.337c-31.415,0-61.358,15.081-80.099,40.34c-2.689,3.623-1.929,8.741,1.694,11.43
	c3.623,2.686,8.739,1.93,11.43-1.694c15.906-21.439,40.317-33.735,66.975-33.735c45.953,0,83.336,37.384,83.336,83.336
	s-37.385,83.336-83.336,83.336s-83.336-37.384-83.336-83.336c0-7.409,0.972-14.754,2.886-21.832
	c1.179-4.355-1.397-8.841-5.752-10.02c-4.351-1.178-8.841,1.395-10.02,5.752c-2.293,8.47-3.454,17.25-3.454,26.1
	c0,54.962,44.715,99.677,99.677,99.677s99.677-44.715,99.677-99.677S467.286,211.337,412.324,211.337z"/>
<path d="M369.294,308.835c0,4.513,3.657,8.17,8.17,8.17h16.019c5.642,24.974-6.819,31.549-8.131,32.16
	c-3.747,1.3-5.863,5.055-5.221,8.98c0.647,3.95,4.225,6.791,8.228,6.791h65.362c4.513,0,8.17-3.657,8.17-8.17s-3.657-8.17-8.17-8.17
	h-46.559c0.289-0.596,0.568-1.212,0.834-1.85c3.519-8.4,4.219-18.358,2.155-29.742h10.89c4.513,0,8.17-3.657,8.17-8.17
	s-3.657-8.17-8.17-8.17h-15.395c-0.964-2.659-2.048-5.379-3.257-8.159c-3.238-7.447-3.27-13.945-0.093-18.79
	c3.088-4.711,8.358-6.82,12.208-6.82c12.46,0,15.791,16.55,15.934,17.293c0.824,4.421,5.069,7.349,9.494,6.542
	c4.439-0.807,7.384-5.061,6.576-9.5c-1.931-10.608-11.103-30.673-32.007-30.673c-10.061,0-20.219,5.574-25.875,14.201
	c-6.252,9.536-6.688,21.706-1.227,34.265c0.244,0.562,0.456,1.095,0.686,1.645h-10.623
	C372.951,300.665,369.294,304.323,369.294,308.835z"/>
<path d="M242.928,393.805c0-22.636-7.398-43.974-21.393-61.708c-2.795-3.542-7.934-4.147-11.475-1.352
	c-3.542,2.795-4.147,7.933-1.352,11.475c11.696,14.821,17.88,32.659,17.88,51.585c0,45.953-37.384,83.336-83.336,83.336
	s-83.336-37.384-83.336-83.336s37.384-83.336,83.336-83.336c16.29,0,32.069,4.698,45.629,13.59
	c3.776,2.473,8.837,1.422,11.313-2.353c2.474-3.774,1.421-8.838-2.353-11.313c-16.23-10.639-35.107-16.264-54.589-16.264
	c-54.962,0-99.677,44.715-99.677,99.677s44.715,99.677,99.677,99.677S242.928,448.768,242.928,393.805z"/>
<path d="M133.938,363.098c13.925-10.828,37.477-5.031,37.783-4.954c4.367,1.123,8.811-1.501,9.942-5.863
	c1.133-4.367-1.49-8.827-5.859-9.959c-1.275-0.332-31.48-7.921-51.82,7.817c-7.129,5.515-12.065,13.022-14.771,22.423h-9.536
	c-4.513,0-8.17,3.657-8.17,8.17c0,4.513,3.657,8.17,8.17,8.17h7.134c-0.028,0.9-0.053,1.801-0.053,2.723s0.025,1.824,0.053,2.723
	h-7.134c-4.513,0-8.17,3.657-8.17,8.17c0,4.513,3.657,8.17,8.17,8.17h9.535c2.706,9.401,7.642,16.908,14.771,22.423
	c10.242,7.925,22.984,9.935,33.277,9.935c10.145-0.001,17.91-1.953,18.543-2.118c4.368-1.132,6.992-5.592,5.859-9.959
	c-1.132-4.366-5.582-6.996-9.959-5.859c-0.236,0.06-23.874,5.791-37.72-4.923c-3.126-2.419-5.583-5.596-7.367-9.501h25.352
	c4.513,0,8.17-3.657,8.17-8.17c0-4.513-3.657-8.17-8.17-8.17h-28.811c-0.035-0.891-0.057-1.796-0.057-2.723s0.022-1.832,0.057-2.723
	h28.811c4.513,0,8.17-3.657,8.17-8.17c0-4.513-3.657-8.17-8.17-8.17h-25.349C128.392,368.677,130.833,365.512,133.938,363.098z"/>
<path d="M49.136,325.157l34.86-39.217c2.998-3.373,2.694-8.536-0.679-11.534c-3.373-2.999-8.537-2.694-11.534,0.679l-21.246,23.901
	c-0.989-8.256-1.515-16.654-1.515-25.01c0-46.977,15.274-91.185,44.168-127.844c2.792-3.544,2.184-8.681-1.36-11.474
	c-3.542-2.792-8.679-2.185-11.474,1.36c-31.188,39.57-47.675,87.276-47.675,137.959c0,7.728,0.413,15.491,1.2,23.164l-19.605-22.055
	c-2.997-3.375-8.16-3.679-11.534-0.679c-3.373,2.998-3.677,8.161-0.679,11.534l34.86,39.217c1.55,1.744,3.772,2.742,6.107,2.742
	S47.586,326.901,49.136,325.157z"/>
<path d="M398.038,424.233l-51.393-10.581c-4.416-0.91-8.74,1.934-9.65,6.354c-0.911,4.421,1.935,8.74,6.354,9.65l31.321,6.449
	c-6.653,4.985-13.663,9.639-20.9,13.817c-40.682,23.488-86.602,32.367-132.801,25.671c-4.451-0.642-8.61,2.449-9.257,6.915
	c-0.647,4.465,2.449,8.609,6.915,9.257c10.794,1.564,21.572,2.34,32.283,2.34c38.768,0,76.641-10.178,111.031-30.033
	c6.693-3.863,13.21-8.103,19.46-12.62l-9.298,28.005c-1.422,4.283,0.898,8.907,5.18,10.328c0.854,0.283,1.722,0.418,2.575,0.418
	c3.425,0,6.615-2.17,7.753-5.598l16.533-49.797c0.735-2.215,0.488-4.638-0.679-6.659S400.322,424.704,398.038,424.233z"/>
<path d="M325.921,122.335c1.138,3.427,4.329,5.598,7.753,5.598c0.853,0,1.721-0.135,2.575-0.418
	c4.282-1.423,6.602-6.046,5.18-10.328l-10.077-30.35c7.645,3.27,15.18,7.014,22.417,11.192
	c40.683,23.489,71.33,58.819,88.633,102.173c1.277,3.198,4.345,5.144,7.591,5.144c1.009,0,2.033-0.188,3.026-0.584
	c4.191-1.672,6.232-6.425,4.56-10.617c-18.676-46.796-51.747-84.927-95.639-110.267c-6.691-3.864-13.62-7.388-20.66-10.543
	l28.902-5.95c4.42-0.91,7.265-5.23,6.354-9.65c-0.909-4.42-5.224-7.263-9.65-6.354l-51.393,10.58
	c-2.285,0.471-4.26,1.895-5.427,3.917c-1.167,2.022-1.414,4.445-0.679,6.659L325.921,122.335z"/>
<g>
</g>
<g>
</g>
<g>
</g>
<g>
</g>
<g>
</g>
<g>
</g>
<g>
</g>
<g>
</g>
<g>
</g>
<g>
</g>
<g>
</g>
<g>
</g>
<g>
</g>
<g>
</g>
<g>
</g>
</svg>
